<svg xmlns="http://www.w3.org/2000/svg" viewBox="0 0 48 48">
    <circle cx="24" cy="24" r="23.1" fill="#e9e9e9" />
    <path fill="#d2d3d3"
        d="M23.7 33.7c1.7-.1 1.6 4.7-3.9 6.3-5.7 1.5-9.7-3.9-8.4-5.4.9-1.3 3.7.3 6.2-.1 2.4.1 4.4-1 6.1-.8z" />
    <path fill="#333"
        d="M19.1 39c-4.4.9-7.8-2.9-7.3-4.7-.2.1-.3.2-.4.4-1.3 1.4 2.7 6.8 8.4 5.4 5.5-1.6 5.6-6.5 3.9-6.3-.2 0-.4-.1-.6 0 1.1.5.3 4.3-4 5.2z"
        opacity=".15" />
    <path fill="#d2d3d3"
        d="M39.2 24.2c-1.6.1-3.5-1.3-6-3.2-2.4-1.7-3.3-4.7 1.1-6.2 4.5-1.5 9.6 1.9 9.1 4.8-.4 2.9-2.7 4.4-4.2 4.6z" />
    <path fill="#333"
        d="M34.9 20.1c-1.8-1.9-2.3-4.3 1-5.6-.6 0-1.1.1-1.7.3-4.4 1.6-3.5 4.5-1.1 6.2 2.5 1.9 4.4 3.3 6 3.2.2 0 .4-.1.7-.1-1.4-.5-3.1-2-4.9-4z"
        opacity=".15" />
    <ellipse cx="25.2" cy="24" fill="#d2d3d3" rx="5" ry="3.8" transform="rotate(-25.666 25.235 24)" />
    <path fill="#333"
        d="M26.2 26c-2.2 1-4.5.7-5.7-.6 0 .3.1.5.2.7.9 1.9 3.6 2.5 6.1 1.3s3.7-3.7 2.8-5.6c-.1-.2-.3-.5-.4-.6.4 1.8-.8 3.8-3 4.8z"
        opacity=".15" />
    <path fill="#d2d3d3"
        d="M24.2 14.4c-.5.6-3.2-1.6-3.1-4.6.2-3.2 4.9-3.5 6.9-1.2s1.6 2.5.1 2.6c-1.8.1-3.4 2.5-3.9 3.2z" />
    <path fill="#333"
        d="M22.8 9.7c.6-2.3 4.1-2.4 5.9-.4-.2-.2-.4-.5-.7-.7-2-2.3-6.7-2-6.9 1.2-.1 3 2.5 5.2 3.1 4.6l.3-.3c-.7-.1-2.3-2.2-1.7-4.4z"
        opacity=".15" />
    <ellipse cx="10.4" cy="22.3" fill="#d2d3d3" rx="6.7" ry="4.2" transform="rotate(-76.167 10.37 22.28)" />
    <path fill="#333"
        d="M8 21.7c.8-3.2 2.8-5.5 4.8-5.6-.2-.2-.5-.3-.8-.3-2.2-.5-4.8 1.9-5.6 5.5s.2 7 2.4 7.5c.3.1.6.1.9.1-1.8-1.1-2.5-4.1-1.7-7.2zM42.2 9.7c1.2 2.8 1.9 6 1.9 9.3 0 12.8-10.4 23.1-23.1 23.1-7.4 0-14-3.5-18.2-8.9C6.4 41.4 14.5 47.1 24 47.1c12.8 0 23.1-10.4 23.1-23.1 0-5.4-1.8-10.4-4.9-14.3z"
        opacity=".15" />
    <path fill="#fff"
        d="M18.4 4.7c-.1-.4.1-.8.5-.9 1.7-.4 3.4-.6 5.1-.6.4 0 .8.3.8.8s-.3.6-.8.6c-1.6 0-3.2.2-4.8.6-.3.1-.7-.1-.8-.5zM4.4 19.3c-.4-.1-.6-.5-.5-.9C5.5 12.8 9.4 8 14.6 5.4c.4-.2.8 0 1 .3s0 .8-.3 1c-4.8 2.5-8.4 6.9-9.9 12.1-.2.4-.6.6-1 .5z" />
</svg>